<svg width="30" height="30" viewBox="0 0 30 30" fill="none" xmlns="http://www.w3.org/2000/svg">
<path d="M4.68752 15.0001C4.68723 13.1898 5.16353 11.4112 6.06853 9.8433C6.97352 8.27538 8.27532 6.97332 9.84307 6.06802C11.4108 5.16272 13.1893 4.68608 14.9996 4.686C16.81 4.68593 18.5885 5.16244 20.1563 6.06762C20.3715 6.18998 20.6264 6.22225 20.8653 6.15738C21.1042 6.09252 21.3077 5.93579 21.4315 5.72139C21.5553 5.507 21.5893 5.25235 21.526 5.01301C21.4627 4.77367 21.3073 4.56907 21.0938 4.44387C18.7704 3.10246 16.0693 2.56516 13.4094 2.91529C10.7496 3.26543 8.27953 4.48343 6.38243 6.38041C4.48533 8.27739 3.26717 10.7473 2.91686 13.4072C2.56655 16.067 3.10368 18.7681 4.44494 21.0916C5.7862 23.4151 7.85664 25.2311 10.3352 26.258C12.8137 27.2848 15.5618 27.4652 18.1532 26.7711C20.7447 26.077 23.0347 24.5472 24.6682 22.4189C26.3016 20.2907 27.1872 17.6829 27.1875 15.0001C27.1875 14.7515 27.0887 14.513 26.9129 14.3372C26.7371 14.1614 26.4987 14.0626 26.25 14.0626C26.0014 14.0626 25.7629 14.1614 25.5871 14.3372C25.4113 14.513 25.3125 14.7515 25.3125 15.0001C25.3125 17.7352 24.226 20.3582 22.2921 22.2922C20.3581 24.2261 17.7351 25.3126 15 25.3126C12.265 25.3126 9.64195 24.2261 7.70798 22.2922C5.77401 20.3582 4.68752 17.7352 4.68752 15.0001Z" fill="#DBB14F"/>
<path d="M28.7888 6.28871C28.8759 6.20155 28.9451 6.09807 28.9923 5.98418C29.0394 5.8703 29.0637 5.74823 29.0637 5.62496C29.0637 5.50169 29.0394 5.37963 28.9923 5.26574C28.9451 5.15186 28.8759 5.04838 28.7888 4.96121C28.7016 4.87405 28.5981 4.80491 28.4842 4.75773C28.3704 4.71056 28.2483 4.68628 28.125 4.68628C28.0018 4.68628 27.8797 4.71056 27.7658 4.75773C27.6519 4.80491 27.5484 4.87405 27.4613 4.96121L15 17.4243L10.0388 12.4612C9.95161 12.374 9.84813 12.3049 9.73424 12.2577C9.62036 12.2106 9.49829 12.1863 9.37502 12.1863C9.25176 12.1863 9.12969 12.2106 9.01581 12.2577C8.90192 12.3049 8.79844 12.374 8.71127 12.4612C8.62411 12.5484 8.55497 12.6519 8.50779 12.7657C8.46062 12.8796 8.43634 13.0017 8.43634 13.125C8.43634 13.2482 8.46062 13.3703 8.50779 13.4842C8.55497 13.5981 8.62411 13.7015 8.71127 13.7887L14.3363 19.4137C14.4234 19.501 14.5268 19.5703 14.6407 19.6175C14.7546 19.6648 14.8767 19.6891 15 19.6891C15.1233 19.6891 15.2454 19.6648 15.3593 19.6175C15.4732 19.5703 15.5767 19.501 15.6638 19.4137L28.7888 6.28871Z" fill="#DBB14F"/>
</svg>
