<svg width="97" height="97" viewBox="0 0 97 97" fill="none" xmlns="http://www.w3.org/2000/svg">
<mask id="mask0_719_6" style="mask-type:alpha" maskUnits="userSpaceOnUse" x="0" y="0" width="97" height="97">
<rect width="97" height="97" fill="#D9D9D9"/>
</mask>
<g mask="url(#mask0_719_6)">
<path d="M68.7083 84.9761C68.1694 84.9761 67.6305 84.9087 67.0916 84.774C66.5528 84.6392 66.0476 84.4035 65.576 84.0667L53.451 76.9938C52.508 76.4549 51.7838 75.7307 51.2786 74.8214C50.7734 73.912 50.5208 72.9184 50.5208 71.8406V57.5938C50.5208 56.516 50.7734 55.5224 51.2786 54.613C51.7838 53.7037 52.508 52.9795 53.451 52.4406L65.576 45.3677C66.0476 45.0309 66.5528 44.7952 67.0916 44.6604C67.6305 44.5257 68.1694 44.4584 68.7083 44.4584C69.2472 44.4584 69.7692 44.5426 70.2745 44.711C70.7797 44.8794 71.268 45.0983 71.7396 45.3677L83.8646 52.4406C84.8076 52.9795 85.5486 53.7037 86.0875 54.613C86.6264 55.5224 86.8958 56.516 86.8958 57.5938V71.8406C86.8958 72.9184 86.6264 73.912 86.0875 74.8214C85.5486 75.7307 84.8076 76.4549 83.8646 76.9938L71.7396 84.0667C71.268 84.3361 70.7797 84.5551 70.2745 84.7235C69.7692 84.8919 69.2472 84.9761 68.7083 84.9761ZM40.4166 48.5C35.9708 48.5 32.1649 46.917 28.9989 43.7511C25.833 40.5851 24.25 36.7792 24.25 32.3334C24.25 27.8875 25.833 24.0816 28.9989 20.9156C32.1649 17.7497 35.9708 16.1667 40.4166 16.1667C44.8625 16.1667 48.6684 17.7497 51.8344 20.9156C55.0003 24.0816 56.5833 27.8875 56.5833 32.3334C56.5833 36.7792 55.0003 40.5851 51.8344 43.7511C48.6684 46.917 44.8625 48.5 40.4166 48.5ZM8.08331 80.8333V69.5167C8.08331 67.2938 8.65588 65.2056 9.80102 63.2521C10.9462 61.2986 12.5291 59.8167 14.55 58.8063C17.9854 57.0549 21.8587 55.5729 26.1698 54.3604C30.4809 53.1479 35.2298 52.5417 40.4166 52.5417H41.8312C42.2354 52.5417 42.6396 52.609 43.0437 52.7438C42.5048 53.9563 42.0502 55.2193 41.6797 56.5328C41.3092 57.8464 41.0229 59.2104 40.8208 60.625H40.4166C35.634 60.625 31.3397 61.2313 27.5338 62.4438C23.7279 63.6563 20.6125 64.8688 18.1875 66.0813C17.5812 66.4181 17.0929 66.8896 16.7224 67.4958C16.3519 68.1021 16.1666 68.7757 16.1666 69.5167V72.75H41.6291C42.0333 74.1646 42.5722 75.5623 43.2458 76.9432C43.9194 78.3241 44.6604 79.6208 45.4687 80.8333H8.08331ZM40.4166 40.4167C42.6396 40.4167 44.5425 39.6252 46.1255 38.0422C47.7085 36.4592 48.5 34.5563 48.5 32.3334C48.5 30.1104 47.7085 28.2075 46.1255 26.6245C44.5425 25.0415 42.6396 24.25 40.4166 24.25C38.1937 24.25 36.2908 25.0415 34.7078 26.6245C33.1248 28.2075 32.3333 30.1104 32.3333 32.3334C32.3333 34.5563 33.1248 36.4592 34.7078 38.0422C36.2908 39.6252 38.1937 40.4167 40.4166 40.4167ZM59.2104 55.9771L68.7083 61.5344L78.2062 55.9771L68.7083 50.5208L59.2104 55.9771ZM71.7396 76.9938L80.8333 71.7396V60.625L71.7396 65.9802V76.9938ZM56.5833 71.7396L65.6771 77.0948V66.0813L56.5833 60.7261V71.7396Z" fill="white"/>
</g>
</svg>
