<svg width="97" height="97" viewBox="0 0 97 97" fill="none" xmlns="http://www.w3.org/2000/svg">
<mask id="mask0_719_12" style="mask-type:alpha" maskUnits="userSpaceOnUse" x="0" y="0" width="97" height="97">
<rect width="97" height="97" fill="#D9D9D9"/>
</mask>
<g mask="url(#mask0_719_12)">
<path d="M52.2385 44.6602L35.0614 27.4831L40.8208 21.8248L52.2385 33.2425L75.175 10.4071L80.8333 16.0654L52.2385 44.6602ZM28.2917 74.7706L56.3812 82.4498L80.4292 74.9727C80.0923 74.3665 79.604 73.8444 78.9641 73.4066C78.3241 72.9687 77.6 72.7498 76.7917 72.7498H56.3812C54.5625 72.7498 53.1142 72.6825 52.0364 72.5477C50.9587 72.413 49.8472 72.1436 48.7021 71.7394L39.3052 68.6071L41.5281 60.7259L49.7125 63.454C50.8576 63.7908 52.2048 64.0602 53.7542 64.2623C55.3035 64.4644 57.5937 64.5991 60.625 64.6665C60.625 63.9255 60.4061 63.2182 59.9682 62.5446C59.5304 61.871 59.0083 61.4331 58.4021 61.2311L34.7583 52.5415H28.2917V74.7706ZM4.04166 88.9165V44.4581H34.7583C35.2298 44.4581 35.7014 44.5087 36.1729 44.6097C36.6444 44.7108 37.0823 44.8286 37.4865 44.9634L61.2312 53.754C63.4542 54.5623 65.2561 55.9769 66.637 57.9977C68.0179 60.0186 68.7083 62.2415 68.7083 64.6665H76.7917C80.1597 64.6665 83.0226 65.7779 85.3802 68.0009C87.7378 70.2238 88.9167 73.154 88.9167 76.7915V80.8331L56.5833 90.9373L28.2917 83.0561V88.9165H4.04166ZM12.125 80.8331H20.2083V52.5415H12.125V80.8331Z" fill="white"/>
</g>
</svg>
