<svg width="97" height="97" viewBox="0 0 97 97" fill="none" xmlns="http://www.w3.org/2000/svg">
<mask id="mask0_719_15" style="mask-type:alpha" maskUnits="userSpaceOnUse" x="0" y="0" width="97" height="97">
<rect width="97" height="97" fill="#D9D9D9"/>
</mask>
<g mask="url(#mask0_719_15)">
<path d="M44.4583 84.875V76.7917H76.7917V48.0958C76.7917 40.2146 74.0467 33.529 68.5568 28.0391C63.0668 22.5491 56.3812 19.8042 48.5 19.8042C40.6187 19.8042 33.9332 22.5491 28.4432 28.0391C22.9533 33.529 20.2083 40.2146 20.2083 48.0958V72.75H16.1667C13.9437 72.75 12.0408 71.9585 10.4578 70.3755C8.87482 68.7925 8.08333 66.8896 8.08333 64.6667V56.5833C8.08333 55.1687 8.43697 53.8384 9.14427 52.5922C9.85156 51.346 10.8451 50.3524 12.125 49.6115L12.4281 44.2562C12.967 39.6757 14.2974 35.4319 16.4193 31.525C18.5411 27.6181 21.2019 24.2163 24.4016 21.3198C27.6012 18.4233 31.2724 16.1667 35.4151 14.55C39.5578 12.9333 43.9194 12.125 48.5 12.125C53.0806 12.125 57.4253 12.9333 61.5344 14.55C65.6434 16.1667 69.3146 18.4064 72.5479 21.2693C75.7812 24.1321 78.442 27.517 80.5302 31.424C82.6184 35.3309 83.9656 39.5747 84.5719 44.1552L84.875 49.4094C86.1549 50.0156 87.1484 50.925 87.8557 52.1375C88.563 53.35 88.9167 54.6299 88.9167 55.9771V65.2729C88.9167 66.6201 88.563 67.9 87.8557 69.1125C87.1484 70.325 86.1549 71.2344 84.875 71.8406V76.7917C84.875 79.0146 84.0835 80.9175 82.5005 82.5005C80.9175 84.0835 79.0146 84.875 76.7917 84.875H44.4583ZM36.375 56.5833C35.2299 56.5833 34.27 56.196 33.4953 55.4214C32.7207 54.6467 32.3333 53.6868 32.3333 52.5417C32.3333 51.3965 32.7207 50.4366 33.4953 49.662C34.27 48.8873 35.2299 48.5 36.375 48.5C37.5201 48.5 38.48 48.8873 39.2547 49.662C40.0293 50.4366 40.4167 51.3965 40.4167 52.5417C40.4167 53.6868 40.0293 54.6467 39.2547 55.4214C38.48 56.196 37.5201 56.5833 36.375 56.5833ZM60.625 56.5833C59.4799 56.5833 58.52 56.196 57.7453 55.4214C56.9707 54.6467 56.5833 53.6868 56.5833 52.5417C56.5833 51.3965 56.9707 50.4366 57.7453 49.662C58.52 48.8873 59.4799 48.5 60.625 48.5C61.7701 48.5 62.73 48.8873 63.5047 49.662C64.2793 50.4366 64.6667 51.3965 64.6667 52.5417C64.6667 53.6868 64.2793 54.6467 63.5047 55.4214C62.73 56.196 61.7701 56.5833 60.625 56.5833ZM24.351 50.3187C23.8795 43.1785 26.0351 37.0486 30.8177 31.9292C35.6003 26.8097 41.5618 24.25 48.7021 24.25C54.6972 24.25 59.9682 26.153 64.5151 29.9589C69.062 33.7648 71.8069 38.6316 72.75 44.5594C66.6201 44.492 60.9786 42.8417 55.8255 39.6083C50.6724 36.375 46.7149 31.9965 43.9531 26.4729C42.8753 31.8618 40.6019 36.6613 37.1328 40.8714C33.6637 45.0814 29.4031 48.2306 24.351 50.3187Z" fill="white"/>
</g>
</svg>
